<?xml version="1.0" encoding="UTF-8" standalone="no"?>
<svg
   xmlns:dc="http://purl.org/dc/elements/1.1/"
   xmlns:cc="http://creativecommons.org/ns#"
   xmlns:rdf="http://www.w3.org/1999/02/22-rdf-syntax-ns#"
   xmlns:svg="http://www.w3.org/2000/svg"
   xmlns="http://www.w3.org/2000/svg"
   xmlns:sodipodi="http://sodipodi.sourceforge.net/DTD/sodipodi-0.dtd"
   xmlns:inkscape="http://www.inkscape.org/namespaces/inkscape"
   width="283.5"
   height="39.5"
   viewBox="0 0 283.5 39.5"
   version="1.1"
   xml:space="preserve"
   style="clip-rule:evenodd;fill-rule:evenodd;stroke-linejoin:round;stroke-miterlimit:1.41420996"
   id="svg74"
   sodipodi:docname="dhl-logo.svg"
   inkscape:version="0.92.3 (2405546, 2018-03-11)"><metadata
     id="metadata80"><rdf:RDF><cc:Work
         rdf:about=""><dc:format>image/svg+xml</dc:format><dc:type
           rdf:resource="http://purl.org/dc/dcmitype/StillImage" /></cc:Work></rdf:RDF></metadata><defs
     id="defs78" /><sodipodi:namedview
     pagecolor="#ffffff"
     bordercolor="#666666"
     borderopacity="1"
     objecttolerance="10"
     gridtolerance="10"
     guidetolerance="10"
     inkscape:pageopacity="0"
     inkscape:pageshadow="2"
     inkscape:window-width="1366"
     inkscape:window-height="705"
     id="namedview76"
     showgrid="false"
     inkscape:zoom="3.2323944"
     inkscape:cx="142"
     inkscape:cy="7"
     inkscape:window-x="-8"
     inkscape:window-y="589"
     inkscape:window-maximized="1"
     inkscape:current-layer="svg74" /><g
     id="g72"><path
       d="m 0,36.6 h 34.4 l -2,2.8 H 0 Z"
       style="fill:#d40511;fill-rule:nonzero"
       id="path46"
       inkscape:connector-curvature="0" /><path
       d="m 283.5,39.4 h -42.1 l 2.1,-2.8 h 40 z"
       style="fill:#d40511;fill-rule:nonzero"
       id="path48"
       inkscape:connector-curvature="0" /><path
       d="m 0,31.4 h 38.3 l -2.1,2.8 H 0 Z"
       style="fill:#d40511;fill-rule:nonzero"
       id="path50"
       inkscape:connector-curvature="0" /><path
       d="M 0,26.2 H 42.2 L 40.1,29 H 0 Z"
       style="fill:#d40511;fill-rule:nonzero"
       id="path52"
       inkscape:connector-curvature="0" /><path
       d="m 283.5,34.2 h -38.2 l 2.1,-2.8 h 36.1 z"
       style="fill:#d40511;fill-rule:nonzero"
       id="path54"
       inkscape:connector-curvature="0" /><path
       d="m 251.3,26.2 h 32.2 V 29 h -34.3 z"
       style="fill:#d40511;fill-rule:nonzero"
       id="path56"
       inkscape:connector-curvature="0" /><path
       d="M 37.1,39.4 55.3,15.1 c 0,0 20.2,0 22.6,0 2.5,0 2.5,0.9 1.2,2.6 -1.2,1.6 -3.3,4.5 -4.6,6.2 -0.6,0.9 -1.8,2.4 2,2.4 4.1,0 30.2,0 30.2,0 C 104.2,29.7 96,39.5 81.4,39.5 69.6,39.4 37.1,39.4 37.1,39.4 Z"
       style="fill:#d40511;fill-rule:nonzero"
       id="path58"
       inkscape:connector-curvature="0" /><path
       d="m 141.3,26.2 -9.9,13.2 h -26 l 9.9,-13.2 z"
       style="fill:#d40511;fill-rule:nonzero"
       id="path60"
       inkscape:connector-curvature="0" /><path
       d="M 178.9,26.2 169,39.4 h -26 l 9.9,-13.2 z"
       style="fill:#d40511;fill-rule:nonzero"
       id="path62"
       inkscape:connector-curvature="0" /><path
       d="m 187.4,26.2 c 0,0 -1.9,2.6 -2.8,3.8 -3.3,4.3 -0.4,9.4 10.3,9.4 12.3,0 41.8,0 41.8,0 l 9.9,-13.2 z"
       style="fill:#d40511;fill-rule:nonzero"
       id="path64"
       inkscape:connector-curvature="0" /><path
       d="m 49.9,0 -9.1,12.1 c 0,0 46.9,0 49.4,0 2.5,0 2.5,0.9 1.2,2.6 -1.2,1.6 -3.3,4.5 -4.6,6.2 -0.6,0.8 -1.8,2.4 2,2.4 4.1,0 20.2,0 20.2,0 0,0 3.3,-4.4 6,-8 C 118.7,10.4 115.3,0.1 102.1,0.1 90.2,0 49.9,0 49.9,0 Z"
       style="fill:#d40511;fill-rule:nonzero"
       id="path66"
       inkscape:connector-curvature="0" /><path
       d="M 181.2,23.2 H 117.5 L 134.9,0 h 26 L 151,13.3 h 11.6 L 172.6,0 h 26 z"
       style="fill:#d40511;fill-rule:nonzero"
       id="path68"
       inkscape:connector-curvature="0" /><path
       d="M 234.6,0 217.2,23.2 H 189.6 L 207,0 Z"
       style="fill:#d40511;fill-rule:nonzero"
       id="path70"
       inkscape:connector-curvature="0" /></g></svg>